<svg height="512pt" viewBox="0 0 512 512.00004" width="512pt" xmlns="http://www.w3.org/2000/svg"><path d="m511.367188 124.464844c-2.605469-67.140625-57.238282-121.769532-124.378907-124.3671878-35.535156-1.3515622-69.246093 11.4531248-94.894531 36.1249998-24.492188 23.566406-38.484375 54.84375-39.707031 88.527344l-158.925781 198.984375c-11.222657 14.050781-10.097657 34.234375 2.617187 46.949219l11.761719 11.761718-103.464844 103.949219c-5.851562 5.875-5.828125 15.382813.046875 21.230469 2.929687 2.917969 6.761719 4.375 10.59375 4.375 3.855469 0 7.707031-1.476562 10.640625-4.421875l103.417969-103.898437 11.707031 11.707031c6.855469 6.855469 15.878906 10.339843 24.941406 10.339843 7.75 0 15.53125-2.550781 22.007813-7.722656l198.984375-158.925781c33.6875-1.222656 64.96875-15.214844 88.535156-39.714844 24.671875-25.644531 37.496094-59.347656 36.117188-94.898437zm-342.378907 270.078125c-2.085937 1.664062-5.082031 1.5-6.972656-.390625l-44.703125-44.703125c-1.886719-1.886719-2.054688-4.886719-.390625-6.972657l146.5625-183.5 89.242187 88.8125zm284.617188-195.996094c-18.972657 19.726563-44.445313 30.589844-71.722657 30.589844l-5.382812-.054688-94.164062-93.710937.054687-.0625-.0625-5.726563c0-27.273437 10.863281-52.742187 30.585937-71.71875 18.75-18.035156 43.09375-27.835937 68.9375-27.835937 1.320313 0 2.648438.027344 3.972657.078125 51.570312 1.992187 93.535156 43.953125 95.535156 95.523437 1.0625 27.3125-8.796875 53.210938-27.753906 72.917969zm0 0"/><path d="m287.519531 223.949219c-5.863281-5.863281-15.371093-5.863281-21.234375 0l-49.585937 49.585937c-5.863281 5.863282-5.863281 15.367188 0 21.234375 2.933593 2.929688 6.773437 4.398438 10.617187 4.398438 3.839844 0 7.683594-1.46875 10.617188-4.398438l49.582031-49.585937c5.867187-5.863282 5.867187-15.371094.003906-21.234375zm0 0"/></svg>