<?xml version="1.0"?>
<svg xmlns="http://www.w3.org/2000/svg" id="Layer_1" data-name="Layer 1" viewBox="0 0 512 512" width="512" height="512"><path d="M323.02,422.289H310.862V410.132a5,5,0,0,0-10,0v12.157H288.706a5,5,0,0,0,0,10h12.156v12.156a5,5,0,0,0,10,0V432.289H323.02a5,5,0,0,0,0-10Z"/><path d="M115.083,313.355a14.582,14.582,0,0,0,.794,19.614l48.935,49.046a14.582,14.582,0,0,0,19.613.838l25.938-21.9-73.4-73.4Z"/><path d="M95.97,359.272a30.449,30.449,0,0,0-3.24,39.168L69.791,421.379A69.2,69.2,0,0,0,49.33,470.611a5,5,0,0,0,4.994,5.006h0a5,5,0,0,0,5-4.994,59.272,59.272,0,0,1,17.527-42.168L99.8,405.513a30.4,30.4,0,0,0,39.171-3.242l15.98-15.982L112,343.241Z"/><path d="M461.631,126.021A96.287,96.287,0,0,0,313,52L446.242,185.24A96.312,96.312,0,0,0,461.631,126.021ZM395.358,63.049a5,5,0,0,1-6.366,3.078,71.24,71.24,0,0,0-41.472-1.7,5,5,0,1,1-2.514-9.679,81.217,81.217,0,0,1,47.275,1.936A5,5,0,0,1,395.358,63.049Zm25.323,17.593a5,5,0,0,1-7.067.266,70.046,70.046,0,0,0-7.065-5.742,5,5,0,1,1,5.787-8.155,80.005,80.005,0,0,1,8.079,6.565A5,5,0,0,1,420.681,80.642Z"/><path d="M429.332,210.405a9.87,9.87,0,0,0,14.249-13.655,5.053,5.053,0,0,1-.572-.6L301.8,54.942a9.876,9.876,0,1,0-13.967,13.966Z"/><path d="M290.407,207.834a106.224,106.224,0,0,1-30.631-65.1L143.452,279.9l74.579,74.58L355.464,238.461A106.218,106.218,0,0,1,290.407,207.834Zm-21.93,46.532-22.05,22.05a17.4,17.4,0,1,1-24.6-24.6l22.05-22.05a17.4,17.4,0,0,1,24.6,24.6Z"/><path d="M269.51,139.42a96.288,96.288,0,0,0,148.624,73.929L284.892,80.106A96.322,96.322,0,0,0,269.51,139.42Z"/><path d="M256.176,234.673a7.376,7.376,0,0,0-5.231,2.163L228.9,258.885a7.4,7.4,0,0,0,10.46,10.46l22.05-22.05a7.393,7.393,0,0,0-5.23-12.622Z"/><path d="M444.679,316.4a18,18,0,1,0,12.727,5.272A17.878,17.878,0,0,0,444.679,316.4Z"/><path d="M155.793,84.643h12.156V96.8a5,5,0,1,0,10,0V84.643h12.156a5,5,0,0,0,0-10H177.949V62.486a5,5,0,1,0-10,0V74.643H155.793a5,5,0,0,0,0,10Z"/><path d="M108.822,198.171A18,18,0,1,0,96.1,192.9,17.878,17.878,0,0,0,108.822,198.171Z"/><path d="M393.915,300.709a5,5,0,0,0-6.324-6.325l-11.6,3.866a36.839,36.839,0,0,1-23.154,0l-11.6-3.866a5,5,0,0,0-6.324,6.325l3.866,11.6a36.846,36.846,0,0,1,0,23.154l-3.866,11.6a5,5,0,0,0,6.324,6.325l11.6-3.866a36.832,36.832,0,0,1,23.154,0l11.6,3.865a5,5,0,0,0,6.324-6.325l-3.866-11.6a36.849,36.849,0,0,1,0-23.155Z"/></svg>
